<?xml version="1.0" encoding="UTF-8"?><svg id="Layer_2" xmlns="http://www.w3.org/2000/svg" xmlns:xlink="http://www.w3.org/1999/xlink" viewBox="0 0 324.5 200.67"><defs><style>.cls-1{fill:#4b69b1;}.cls-2{fill:#52adcf;}.cls-3{fill:#90d3ed;}.cls-4{fill:#59c3ea;}.cls-5{fill:#333;}.cls-6{fill:#50b1d4;}.cls-7{fill:#101a33;}.cls-8{fill:#39508b;}.cls-9{clip-path:url(#clippath);}.cls-10{fill:#1f4f62;}.cls-11{fill:none;}.cls-12{fill:#69c6ea;}.cls-13{fill:#2e5465;}</style><clipPath id="clippath"><rect class="cls-11" width="324.5" height="200.67"/></clipPath></defs><g id="Layer_1-2"><rect class="cls-8" x="241.5" width="21.21" height="141.91"/><polygon class="cls-1" points="241.5 0 203.96 19.63 203.96 24.85 203.96 60.3 203.96 67.06 203.96 109.89 120.36 109.89 99.03 109.89 99.03 89.59 61.78 89.59 61.78 141.91 241.5 141.91 241.5 0"/><polygon class="cls-13" points="203.96 60.3 203.96 67.06 172.7 85.46 151.42 85.48 194.15 60.3 203.96 60.3"/><rect class="cls-6" x="194.15" y="24.85" width="9.8" height="35.45"/><polygon class="cls-12" points="61.78 0 61.78 78.89 99.02 78.89 99.02 77.32 99.02 54.57 99.03 54.57 120.35 67.15 120.36 67.15 151.42 85.48 194.15 60.3 194.15 24.85 162 41.96 151.42 47.59 61.78 0"/><polygon class="cls-3" points="61.78 0 151.42 47.59 162 41.96 83.14 0 61.78 0"/><polygon class="cls-8" points="120.36 94.27 120.36 109.89 99.03 109.89 99.03 89.59 117.84 89.59 120.36 94.27"/><polygon class="cls-7" points="120.36 89.59 120.36 94.27 117.84 89.59 120.36 89.59"/><polygon class="cls-10" points="99.03 54.57 120.35 67.15 120.35 78.89 112.09 78.89 99.03 54.57"/><polygon class="cls-2" points="99.03 54.57 112.09 78.89 99.03 78.89 99.03 54.57"/><polygon class="cls-4" points="99.02 77.32 99.02 78.89 99.03 78.89 99.03 54.57 99.02 77.32"/><polygon class="cls-4" points="99.02 54.57 99.02 77.32 99.03 54.57 99.02 54.57"/><polygon class="cls-5" points="23.51 169.08 20.89 174.72 14.62 188.24 8.36 174.72 5.73 169.08 0 169.08 2.62 174.72 14.62 200.63 26.62 174.72 29.24 169.08 23.51 169.08"/><rect class="cls-5" x="37.88" y="169.08" width="5.12" height="31.55"/><g class="cls-9"><path class="cls-5" d="m75.23,177.83v-.18c0-1.58-1.19-2.89-2.62-2.89h-11.63c-1.43,0-2.62,1.31-2.62,2.89v.18c0,1.58,1.19,2.88,2.62,2.88h10.32c2.66,0,5.04,1.26,6.68,3.25.12.13.21.27.33.41,1.27,1.71,2.05,3.92,2.05,6.31,0,5.5-4.05,9.96-9.05,9.96h-8.97c-5,0-9.05-4.46-9.05-9.96h5.12c0,2.39,1.76,4.33,3.93,4.33h8.97c2.17,0,3.97-1.94,3.97-4.33s-1.8-4.33-3.97-4.33h-10.32c-2.09,0-3.97-.9-5.36-2.39-.37-.41-.7-.86-.98-1.35-.86-1.35-1.35-3.02-1.35-4.82v-.18c0-4.69,3.44-8.52,7.7-8.52h11.63c4.26,0,7.74,3.83,7.74,8.52v.18l-5.12.04Z"/><rect class="cls-5" x="90.58" y="169.08" width="5.12" height="31.55"/><path class="cls-5" d="m133.62,184.86c0,8.7-6.43,15.77-14.33,15.77s-14.33-7.08-14.33-15.77,6.43-15.77,14.33-15.77,14.33,7.08,14.33,15.77m-5.12,0c0-5.59-4.14-10.14-9.21-10.14s-9.21,4.55-9.21,10.14,4.14,10.14,9.21,10.14,9.21-4.55,9.21-10.14"/><polygon class="cls-5" points="171.55 169.13 171.55 200.67 166.43 196.35 148 180.71 148 200.67 142.88 200.67 142.88 169.22 148 173.54 166.43 189.18 166.43 169.08 171.55 169.13"/><polygon class="cls-5" points="210.41 169.13 210.41 174.76 198.66 174.76 198.66 200.67 193.54 200.67 193.54 174.76 181.78 174.76 181.78 169.13 210.41 169.13"/><path class="cls-5" d="m225.81,177.6v2.93h18.43v5.63h-18.43v5.95c0,1.58,1.19,2.89,2.62,2.89h20.93v5.63h-20.93c-4.26,0-7.7-3.83-7.7-8.52v-14.51c0-4.69,3.44-8.52,7.7-8.52h20.93v5.63h-20.93c-1.43,0-2.62,1.31-2.62,2.88"/><path class="cls-5" d="m262.05,184.86c0,5.59,4.14,10.14,9.21,10.14h14.33v5.63h-14.33c-7.9,0-14.33-7.08-14.33-15.77s6.43-15.77,14.33-15.77h14.33v5.63h-14.33c-5.08,0-9.21,4.55-9.21,10.14"/><polygon class="cls-5" points="324.5 169.08 324.5 200.63 319.38 200.63 319.38 186.16 300.95 186.16 300.95 200.63 295.83 200.63 295.83 169.08 300.95 169.08 300.95 180.53 319.38 180.53 319.38 169.08 324.5 169.08"/></g></g></svg>